<svg width="1289" height="404" viewBox="0 0 1289 404" fill="none" xmlns="http://www.w3.org/2000/svg">
<path d="M985.833 394.675C985.833 393.715 986.163 392.905 986.823 392.245C987.483 391.585 988.264 391.255 989.164 391.255C990.124 391.255 990.903 391.585 991.503 392.245C992.163 392.905 992.493 393.715 992.493 394.675C992.493 395.575 992.163 396.355 991.503 397.015C990.903 397.675 990.124 398.005 989.164 398.005C988.264 398.005 987.483 397.675 986.823 397.015C986.163 396.355 985.833 395.575 985.833 394.675Z" fill="black"/>
<path d="M955.757 394.675C955.757 393.715 956.087 392.905 956.747 392.245C957.407 391.585 958.187 391.255 959.087 391.255C960.047 391.255 960.827 391.585 961.427 392.245C962.087 392.905 962.417 393.715 962.417 394.675C962.417 395.575 962.087 396.355 961.427 397.015C960.827 397.675 960.047 398.005 959.087 398.005C958.187 398.005 957.407 397.675 956.747 397.015C956.087 396.355 955.757 395.575 955.757 394.675Z" fill="black"/>
<path d="M925.681 394.675C925.681 393.715 926.011 392.905 926.671 392.245C927.331 391.585 928.111 391.255 929.011 391.255C929.971 391.255 930.751 391.585 931.351 392.245C932.011 392.905 932.341 393.715 932.341 394.675C932.341 395.575 932.011 396.355 931.351 397.015C930.751 397.675 929.971 398.005 929.011 398.005C928.111 398.005 927.331 397.675 926.671 397.015C926.011 396.355 925.681 395.575 925.681 394.675Z" fill="black"/>
<path d="M824.75 377.125V372.715H854.99V377.125H824.75ZM852.11 355.435H856.79V396.835H852.11V355.435ZM821.96 355.435H826.64V396.835H821.96V355.435Z" fill="black"/>
<path d="M803.096 359.485L771.416 399.985L771.866 392.785L803.546 352.285L803.096 359.485ZM776.096 355.435V393.325L771.416 399.985V355.435H776.096ZM803.546 352.285V396.835H798.866V358.945L803.546 352.285Z" fill="black"/>
<path d="M728.22 392.425H748.29V355.435H752.97V396.835H698.79V355.435H703.47V392.425H723.54V355.435H728.22V392.425Z" fill="black"/>
<path d="M679.926 359.485L648.246 399.985L648.696 392.785L680.376 352.285L679.926 359.485ZM652.926 355.435V393.325L648.246 399.985V355.435H652.926ZM680.376 352.285V396.835H675.696V358.945L680.376 352.285Z" fill="black"/>
<path d="M611.771 355.435H636.071V359.845H611.771V355.435ZM621.581 356.695H626.261V396.835H621.581V356.695Z" fill="black"/>
<path d="M542.928 396.835H537.708L552.108 376.945H557.328L542.928 396.835ZM569.388 396.835H564.708V355.435H569.388V396.835ZM562.264 376.835L555.708 380.835L553.425 382.335C550.605 382.335 554.028 381.335 549.708 380.335C547.428 379.495 542.988 376.855 541.668 375.055C540.348 373.195 539.688 370.795 539.688 367.855C539.688 364.855 540.348 362.455 541.668 360.655C542.988 358.855 544.788 357.535 547.068 356.695C549.408 355.855 551.988 355.435 554.808 355.435H566.598V359.575H554.808C552.708 359.575 550.878 359.875 549.318 360.475C547.758 361.015 546.528 361.885 545.628 363.085C544.788 364.285 544.368 365.875 544.368 367.855C544.368 369.775 544.788 371.365 545.628 372.625C546.528 373.825 547.758 374.725 549.318 375.325C550.878 375.865 554.664 376.835 556.764 376.835H562.264Z" fill="black"/>
<path d="M484.261 376.135C484.261 371.935 485.191 368.215 487.051 364.975C488.911 361.735 491.431 359.185 494.611 357.325C497.851 355.465 501.481 354.535 505.501 354.535C509.521 354.535 513.121 355.465 516.301 357.325C519.541 359.185 522.091 361.735 523.951 364.975C525.811 368.215 526.741 371.935 526.741 376.135C526.741 380.275 525.811 383.995 523.951 387.295C522.091 390.535 519.541 393.085 516.301 394.945C513.121 396.805 509.521 397.735 505.501 397.735C501.481 397.735 497.851 396.805 494.611 394.945C491.431 393.085 488.911 390.535 487.051 387.295C485.191 383.995 484.261 380.275 484.261 376.135ZM489.031 376.135C489.031 379.495 489.751 382.465 491.191 385.045C492.631 387.625 494.581 389.665 497.041 391.165C499.561 392.605 502.381 393.325 505.501 393.325C508.621 393.325 511.411 392.605 513.871 391.165C516.391 389.665 518.371 387.625 519.811 385.045C521.251 382.465 521.971 379.495 521.971 376.135C521.971 372.835 521.251 369.895 519.811 367.315C518.371 364.675 516.391 362.635 513.871 361.195C511.411 359.695 508.621 358.945 505.501 358.945C502.381 358.945 499.561 359.695 497.041 361.195C494.581 362.635 492.631 364.645 491.191 367.225C489.751 369.805 489.031 372.775 489.031 376.135Z" fill="black"/>
<path d="M470.453 396.835L462.443 360.745L464.963 352.285L475.763 396.835H470.453ZM447.143 392.785L464.963 352.285L465.413 362.365L448.763 399.625L447.143 392.785ZM448.763 399.625L432.383 362.365L432.833 352.285L450.383 392.785L448.763 399.625ZM422.033 396.835L432.833 352.285L435.353 360.745L427.433 396.835H422.033Z" fill="black"/>
<path d="M368.87 359.5H373.82L374.5 401.5H368.87V380V359.5ZM337.37 359.5H342.05V400.9H337.37V359.5ZM339.98 379.3V375.16H351.95C356.21 375.16 359.78 376.21 362.66 378.31C365.6 380.35 367.07 383.59 367.07 388.03C367.07 390.97 366.41 393.4 365.09 395.32C363.77 397.24 361.97 398.65 359.69 399.55C357.41 400.45 354.83 400.9 351.95 400.9H339.98V396.76H351.95C354.05 396.76 355.88 396.46 357.44 395.86C359 395.2 360.2 394.24 361.04 392.98C361.94 391.66 362.39 390.01 362.39 388.03C362.39 385.15 361.43 382.99 359.51 381.55C357.65 380.05 355.13 379.3 351.95 379.3H339.98Z" fill="black"/>
<path d="M296.208 345.835H326.208V351.268H296.208V345.835ZM308.319 347.387H314.097V396.835H308.319V347.387Z" fill="black"/>
<path d="M1136.92 19.1012C1163.92 9.60103 1214.07 11.7594 1236.25 25.2376C1258.43 38.7157 1273.98 62.3977 1281.85 87.1254C1289.72 111.853 1288.39 138.594 1278.08 162.412C1267.78 186.231 1249.21 205.519 1225.8 216.716C1202.39 227.913 1175.72 230.264 1150.71 223.335C1125.7 216.405 1104.05 200.663 1089.74 179.014C1075.43 157.365 1069.43 131.27 1072.86 105.547C1076.28 79.8232 1089.37 54.8871 1108.85 37.7376L1132.85 65.2376C1120.29 76.2977 1112.9 93.9961 1110.7 110.586C1108.49 127.175 1112.35 144.004 1121.58 157.966C1130.81 171.928 1144.78 182.081 1160.9 186.55C1177.03 191.019 1194.23 189.502 1209.33 182.281C1224.43 175.06 1236.41 162.621 1243.05 147.26C1249.69 131.899 1250.56 114.653 1245.48 98.7055C1240.4 82.7581 1229.73 69.1856 1215.43 60.4932C1201.12 51.8009 1178.16 44.0754 1161.67 46.9122L1136.92 19.1012Z" fill="black"/>
<path d="M665.351 177.738C650.338 192.324 628.745 204.648 607.88 208.466C587.016 212.285 565.451 209.898 546.005 201.618C526.559 193.338 510.136 179.551 498.884 162.058C487.633 144.565 482.075 124.181 482.938 103.57C483.802 82.9594 491.046 63.0813 503.723 46.5344C516.4 29.9876 533.921 17.542 553.996 10.8246C574.07 4.1073 595.763 3.43079 616.239 8.88356C636.716 14.3363 655.022 25.6646 668.766 41.3875L643.127 62.5419C633.765 51.832 621.295 44.1155 607.348 40.4012C593.4 36.687 578.623 37.1478 564.949 41.7234C551.275 46.2991 539.34 54.7767 530.705 66.0479C522.07 77.3191 517.135 90.8594 516.547 104.899C515.959 118.938 519.745 132.823 527.409 144.739C535.074 156.654 546.26 166.046 559.506 171.686C572.752 177.326 587.441 178.952 601.654 176.351C615.866 173.75 632.125 163.673 642.351 153.738L665.351 177.738Z" fill="black"/>
<path d="M96.0013 62.5997H62.4484L59.4436 202.264H96.0013V62.5997Z" fill="black"/>
<path d="M160.102 35.6644H0.851165V5.23754H160.102V35.6644Z" fill="black"/>
<path d="M334.377 5.23754H300.824L299.072 103.751L297.319 202.264H334.377V5.23754Z" fill="black"/>
<path d="M846.184 11.2231H810.628L806.622 177.823H841.677L846.184 11.2231Z" fill="black"/>
<path d="M948.351 182.238L841.677 180.317V213.238L948.851 214.238L948.351 182.238Z" fill="black"/>
<path d="M96.0013 62.5997H62.4484L59.4436 202.264H96.0013V62.5997Z" stroke="black"/>
<path d="M160.102 35.6644H0.851165V5.23754H160.102V35.6644Z" stroke="black"/>
<path d="M334.377 5.23754H300.824L299.072 103.751L297.319 202.264H334.377V5.23754Z" stroke="black"/>
<path d="M846.184 11.2231H810.628L806.622 177.823H841.677L846.184 11.2231Z" stroke="black"/>
<path d="M948.351 182.238L841.677 180.317V213.238L948.851 214.238L948.351 182.238Z" stroke="black"/>
<path d="M912.154 356V362.911V389.494V390.557V398H916V356H912.154Z" fill="black"/>
<path d="M911 388.962L912.154 389.494M912.154 389.494V390.557V398H916V356H912.154V362.911V389.494Z" stroke="black"/>
<path d="M916 376C916 370.779 914.101 365.744 910.674 361.88C907.246 358.015 902.537 355.596 897.463 355.096C892.389 354.596 887.316 356.051 883.232 359.175C879.148 362.3 876.347 366.871 875.376 371.997C874.404 377.123 875.332 382.435 877.977 386.899C880.622 391.362 884.796 394.655 889.683 396.137C894.571 397.618 899.822 397.182 904.412 394.912C909.003 392.642 912.603 388.701 914.51 383.859L911.9 381.385C910.384 385.234 906.233 389.229 902.585 391.033C898.936 392.837 894.762 393.185 890.876 392.007C886.991 390.829 883.673 388.211 881.571 384.663C879.468 381.116 878.731 376.892 879.503 372.818C880.275 368.743 882.502 365.11 885.748 362.626C888.994 360.142 893.027 358.986 897.06 359.384C901.093 359.781 904.837 361.703 907.562 364.775C910.286 367.848 911.796 371.849 911.796 376H916Z" fill="black"/>
</svg>
