<svg width="1288" height="233" viewBox="0 0 1288 233" fill="none" xmlns="http://www.w3.org/2000/svg">
<path d="M1136.92 19.1012C1163.92 9.60101 1214.07 11.7594 1236.25 25.2375C1258.43 38.7157 1273.98 62.3977 1281.85 87.1254C1289.72 111.853 1288.39 138.594 1278.08 162.412C1267.78 186.231 1249.21 205.519 1225.8 216.716C1202.39 227.913 1175.72 230.264 1150.71 223.335C1125.7 216.405 1104.05 200.663 1089.74 179.014C1075.43 157.365 1069.43 131.27 1072.86 105.547C1076.28 79.8232 1089.37 54.8871 1108.85 37.7375L1132.85 65.2375C1120.29 76.2976 1112.9 93.9961 1110.7 110.586C1108.49 127.175 1112.35 144.004 1121.58 157.966C1130.81 171.928 1144.78 182.081 1160.9 186.55C1177.03 191.019 1194.23 189.502 1209.33 182.281C1224.43 175.06 1236.41 162.62 1243.05 147.26C1249.69 131.899 1250.56 114.653 1245.48 98.7054C1240.4 82.7581 1229.73 69.1856 1215.43 60.4932C1201.12 51.8009 1178.16 44.0754 1161.67 46.9122L1136.92 19.1012Z" fill="black"/>
<path d="M665.351 177.738C650.338 192.324 628.745 204.648 607.88 208.466C587.016 212.285 565.451 209.898 546.005 201.618C526.559 193.338 510.136 179.551 498.884 162.058C487.633 144.565 482.075 124.181 482.938 103.57C483.802 82.9594 491.046 63.0813 503.723 46.5344C516.4 29.9876 533.921 17.542 553.996 10.8246C574.07 4.10728 595.763 3.43077 616.239 8.88354C636.716 14.3363 655.022 25.6646 668.766 41.3875L643.127 62.5419C633.765 51.832 621.296 44.1155 607.348 40.4012C593.4 36.6869 578.623 37.1478 564.949 41.7234C551.275 46.2991 539.34 54.7766 530.705 66.0478C522.07 77.319 517.135 90.8594 516.547 104.899C515.959 118.938 519.745 132.823 527.409 144.739C535.074 156.654 546.26 166.046 559.506 171.686C572.752 177.326 587.441 178.952 601.654 176.351C615.866 173.75 632.125 163.673 642.351 153.738L665.351 177.738Z" fill="black"/>
<path d="M96.0013 62.5997H62.4484L59.4436 202.264H96.0013V62.5997Z" fill="black"/>
<path d="M160.102 35.6644H0.851176V5.23753H160.102V35.6644Z" fill="black"/>
<path d="M334.377 5.23753H300.824L299.072 103.751L297.319 202.264H334.377V5.23753Z" fill="black"/>
<path d="M846.184 11.2231H810.628L806.622 177.823H841.677L846.184 11.2231Z" fill="black"/>
<path d="M948.351 182.238L841.677 180.317V213.238L948.851 214.238L948.351 182.238Z" fill="black"/>
<path d="M96.0013 62.5997H62.4484L59.4436 202.264H96.0013V62.5997Z" stroke="black"/>
<path d="M160.102 35.6644H0.851176V5.23753H160.102V35.6644Z" stroke="black"/>
<path d="M334.377 5.23753H300.824L299.072 103.751L297.319 202.264H334.377V5.23753Z" stroke="black"/>
<path d="M846.184 11.2231H810.628L806.622 177.823H841.677L846.184 11.2231Z" stroke="black"/>
<path d="M948.351 182.238L841.677 180.317V213.238L948.851 214.238L948.351 182.238Z" stroke="black"/>
</svg>
